<svg xmlns="http://www.w3.org/2000/svg" viewBox="0 0 32 32">
  <rect width="32" height="32" rx="7" fill="#181411"/>
  <rect x="3.5" y="3.5" width="25" height="25" rx="5" fill="none" stroke="#3f7774" stroke-width="1.4"/>
  <path d="M9 23V11.5c0-1.4 1.1-2.5 2.5-2.5h9c1.4 0 2.5 1.1 2.5 2.5V23" fill="none" stroke="#f5f1eb" stroke-width="2" stroke-linecap="round"/>
  <path d="M13 23v-6.4c0-1.7 1.3-3.1 3-3.1s3 1.4 3 3.1V23" fill="#3f7774" stroke="#f5f1eb" stroke-width="1.4"/>
  <path d="M16 5.8l1.3 2.1 2.1 1.3-2.1 1.3-1.3 2.1-1.3-2.1-2.1-1.3 2.1-1.3L16 5.8z" fill="#9a2a21"/>
  <path d="M7.5 25h17" stroke="#9a2a21" stroke-width="1.6" stroke-linecap="round"/>
</svg>
